<svg width="24" height="24" viewBox="0 0 24 24" fill="none" xmlns="http://www.w3.org/2000/svg">
<g id="Notification" clip-path="url(#clip0_1_3314)">
<path id="26. Notification" d="M22.0862 14.672C21.7409 14.3284 21.4671 13.9198 21.2807 13.4697C21.0943 13.0197 20.999 12.5371 21.0002 12.05V9C21.0002 6.61305 20.052 4.32387 18.3642 2.63604C16.6764 0.948211 14.3872 0 12.0002 0C9.61329 0 7.32411 0.948211 5.63628 2.63604C3.94845 4.32387 3.00024 6.61305 3.00024 9V12.05C3.00151 12.5371 2.90619 13.0197 2.71978 13.4697C2.53337 13.9198 2.25958 14.3284 1.91424 14.672C1.47771 15.1085 1.18043 15.6646 1.05998 16.2701C0.939539 16.8755 1.00135 17.5031 1.23759 18.0734C1.47383 18.6437 1.87389 19.1312 2.38718 19.4741C2.90047 19.817 3.50393 20 4.12124 20H7.10024C7.32976 21.1303 7.94297 22.1465 8.83598 22.8764C9.729 23.6063 10.8469 24.005 12.0002 24.005C13.1536 24.005 14.2715 23.6063 15.1645 22.8764C16.0575 22.1465 16.6707 21.1303 16.9002 20H19.8802C20.4975 20 21.101 19.817 21.6143 19.4741C22.1276 19.1312 22.5277 18.6437 22.7639 18.0734C23.0001 17.5031 23.0619 16.8755 22.9415 16.2701C22.8211 15.6646 22.5238 15.1085 22.0872 14.672H22.0862ZM12.0002 22C11.382 21.9974 10.7796 21.8039 10.2755 21.4459C9.77147 21.0879 9.39032 20.5829 9.18424 20H14.8162C14.6102 20.5829 14.229 21.0879 13.7249 21.4459C13.2209 21.8039 12.6185 21.9974 12.0002 22ZM19.8792 18H4.12124C3.89943 18.0001 3.68257 17.9345 3.4981 17.8113C3.31363 17.6881 3.16984 17.513 3.08494 17.3081C3.00004 17.1032 2.97784 16.8777 3.02115 16.6601C3.06446 16.4426 3.17133 16.2428 3.32824 16.086C3.85989 15.5572 4.2814 14.9282 4.5684 14.2354C4.85539 13.5427 5.00217 12.7999 5.00024 12.05V9C5.00024 7.14348 5.73774 5.36301 7.05049 4.05025C8.36325 2.7375 10.1437 2 12.0002 2C13.8568 2 15.6372 2.7375 16.95 4.05025C18.2627 5.36301 19.0002 7.14348 19.0002 9V12.05C18.9983 12.7999 19.1451 13.5427 19.4321 14.2354C19.7191 14.9282 20.1406 15.5572 20.6722 16.086C20.8292 16.2428 20.936 16.4426 20.9793 16.6601C21.0226 16.8777 21.0004 17.1032 20.9155 17.3081C20.8306 17.513 20.6869 17.6881 20.5024 17.8113C20.3179 17.9345 20.101 18.0001 19.8792 18Z" fill="#21334F"/>
</g>
<defs>
<clipPath id="clip0_1_3314">
<rect width="24" height="24" fill="white"/>
</clipPath>
</defs>
</svg>
